HIERARCHY
ROOT Hips
{
	OFFSET 0.053599 88.859886 3.107447
	CHANNELS 6 Xposition Yposition Zposition Zrotation Yrotation Xrotation 
	JOINT Spine
	{
		OFFSET -0.000000 8.814246 -2.080107
		CHANNELS 3 Zrotation Yrotation Xrotation
		JOINT Spine1
		{
			OFFSET 0.000000 8.844141 0.000000
			CHANNELS 3 Zrotation Yrotation Xrotation
			JOINT Spine2
			{
				OFFSET -0.000000 11.682268 0.000000
				CHANNELS 3 Zrotation Yrotation Xrotation
				JOINT Spine3
				{
					OFFSET 0.000000 11.746700 0.000000
					CHANNELS 3 Zrotation Yrotation Xrotation
					JOINT Neck
					{
						OFFSET -0.000000 17.658264 -0.000000
						CHANNELS 3 Zrotation Yrotation Xrotation
						JOINT Neck1
						{
							OFFSET -0.000000 5.101515 -0.000000
							CHANNELS 3 Zrotation Yrotation Xrotation
							JOINT Head
							{
								OFFSET 0.000000 5.101515 0.000000
								CHANNELS 3 Zrotation Yrotation Xrotation
								JOINT HeadEnd
								{
									OFFSET 0.000000 11.655085 0.000000
									CHANNELS 3 Zrotation Yrotation Xrotation
									End Site
									{
										OFFSET 0.000000 0.000000 0.000000
									}
								}
							}
						}
					}
					JOINT RightShoulder
					{
						OFFSET -2.625389 11.175210 0.000000
						CHANNELS 3 Zrotation Yrotation Xrotation
						JOINT RightArm
						{
							OFFSET -0.000000 10.434715 -0.000000
							CHANNELS 3 Zrotation Yrotation Xrotation
							JOINT RightForeArm
							{
								OFFSET -0.000000 29.628420 0.000000
								CHANNELS 3 Zrotation Yrotation Xrotation
								JOINT RightHand
								{
									OFFSET -0.000000 22.857611 0.000000
									CHANNELS 3 Zrotation Yrotation Xrotation
									JOINT RightHandThumb1
									{
										OFFSET -2.867323 3.959563 2.944291
										CHANNELS 3 Zrotation Yrotation Xrotation
										JOINT RightHandThumb2
										{
											OFFSET 0.000000 3.350399 0.000000
											CHANNELS 3 Zrotation Yrotation Xrotation
											JOINT RightHandThumb3
											{
												OFFSET 0.000000 3.756509 -0.000000
												CHANNELS 3 Zrotation Yrotation Xrotation
												JOINT RightHandThumb4
												{
													OFFSET 0.000000 3.147345 0.000000
													CHANNELS 3 Zrotation Yrotation Xrotation
													End Site
													{
														OFFSET 0.000000 0.000000 0.000000
													}
												}
											}
										}
									}
									JOINT RightHandIndex1
									{
										OFFSET -0.086752 10.030893 2.345280
										CHANNELS 3 Zrotation Yrotation Xrotation
										JOINT RightHandIndex2
										{
											OFFSET -0.000000 4.061090 0.000000
											CHANNELS 3 Zrotation Yrotation Xrotation
											JOINT RightHandIndex3
											{
												OFFSET -0.000000 3.248873 0.000000
												CHANNELS 3 Zrotation Yrotation Xrotation
												JOINT RightHandIndex4
												{
													OFFSET 0.000000 2.639709 -0.000000
													CHANNELS 3 Zrotation Yrotation Xrotation
													End Site
													{
														OFFSET 0.000000 0.000000 0.000000
													}
												}
											}
										}
									}
									JOINT RightHandMiddle1
									{
										OFFSET 0.104102 9.502952 0.006768
										CHANNELS 3 Zrotation Yrotation Xrotation
										JOINT RightHandMiddle2
										{
											OFFSET 0.000000 4.568727 0.000000
											CHANNELS 3 Zrotation Yrotation Xrotation
											JOINT RightHandMiddle3
											{
												OFFSET 0.000000 3.654981 -0.000000
												CHANNELS 3 Zrotation Yrotation Xrotation
												JOINT RightHandMiddle4
												{
													OFFSET -0.000000 2.741236 -0.000000
													CHANNELS 3 Zrotation Yrotation Xrotation
													End Site
													{
														OFFSET 0.000000 0.000000 0.000000
													}
												}
											}
										}
									}
									JOINT RightHandRing1
									{
										OFFSET 0.086752 8.921708 -2.267442
										CHANNELS 3 Zrotation Yrotation Xrotation
										JOINT RightHandRing2
										{
											OFFSET -0.000000 4.061090 0.000000
											CHANNELS 3 Zrotation Yrotation Xrotation
											JOINT RightHandRing3
											{
												OFFSET 0.000000 3.654981 -0.000000
												CHANNELS 3 Zrotation Yrotation Xrotation
												JOINT RightHandRing4
												{
													OFFSET 0.000000 2.741236 -0.000000
													CHANNELS 3 Zrotation Yrotation Xrotation
													End Site
													{
														OFFSET 0.000000 0.000000 0.000000
													}
												}
											}
										}
									}
									JOINT RightHandPinky1
									{
										OFFSET -0.173504 7.976997 -4.467199
										CHANNELS 3 Zrotation Yrotation Xrotation
										JOINT RightHandPinky2
										{
											OFFSET 0.000000 3.350399 -0.000000
											CHANNELS 3 Zrotation Yrotation Xrotation
											JOINT RightHandPinky3
											{
												OFFSET -0.000000 2.842763 0.000000
												CHANNELS 3 Zrotation Yrotation Xrotation
												JOINT RightHandPinky4
												{
													OFFSET -0.000000 2.639709 0.000000
													CHANNELS 3 Zrotation Yrotation Xrotation
													End Site
													{
														OFFSET 0.000000 0.000000 0.000000
													}
												}
											}
										}
									}
									JOINT RightForeArmEnd
									{
										OFFSET 0.000000 0.000000 0.000000
										CHANNELS 3 Zrotation Yrotation Xrotation
										End Site
										{
											OFFSET 0.000000 0.000000 0.000000
										}
									}
								}
								JOINT RightArmEnd
								{
									OFFSET 0.000000 0.000000 0.000000
									CHANNELS 3 Zrotation Yrotation Xrotation
									End Site
									{
										OFFSET 0.000000 0.000000 0.000000
									}
								}
							}
						}
					}
					JOINT LeftShoulder
					{
						OFFSET 2.625389 11.175210 0.000000
						CHANNELS 3 Zrotation Yrotation Xrotation
						JOINT LeftArm
						{
							OFFSET 0.000000 10.813635 -0.000000
							CHANNELS 3 Zrotation Yrotation Xrotation
							JOINT LeftForeArm
							{
								OFFSET 0.000000 28.724781 0.000000
								CHANNELS 3 Zrotation Yrotation Xrotation
								JOINT LeftHand
								{
									OFFSET 0.644384 25.716167 -0.328871
									CHANNELS 3 Zrotation Yrotation Xrotation
									JOINT LeftHandThumb1
									{
										OFFSET 2.867323 3.959563 2.944291
										CHANNELS 3 Zrotation Yrotation Xrotation
										JOINT LeftHandThumb2
										{
											OFFSET 0.000000 3.350399 0.000000
											CHANNELS 3 Zrotation Yrotation Xrotation
											JOINT LeftHandThumb3
											{
												OFFSET -0.000000 3.756509 0.000000
												CHANNELS 3 Zrotation Yrotation Xrotation
												JOINT LeftHandThumb4
												{
													OFFSET -0.000000 3.100000 0.000000
													CHANNELS 3 Zrotation Yrotation Xrotation
													End Site
													{
														OFFSET 0.000000 0.000000 0.000000
													}
												}
											}
										}
									}
									JOINT LeftHandIndex1
									{
										OFFSET 0.086752 10.030893 2.345280
										CHANNELS 3 Zrotation Yrotation Xrotation
										JOINT LeftHandIndex2
										{
											OFFSET -0.000000 4.061090 -0.000000
											CHANNELS 3 Zrotation Yrotation Xrotation
											JOINT LeftHandIndex3
											{
												OFFSET 0.000000 3.248873 -0.000000
												CHANNELS 3 Zrotation Yrotation Xrotation
												JOINT LeftHandIndex4
												{
													OFFSET 0.000000 2.639709 -0.000000
													CHANNELS 3 Zrotation Yrotation Xrotation
													End Site
													{
														OFFSET 0.000000 0.000000 0.000000
													}
												}
											}
										}
									}
									JOINT LeftHandMiddle1
									{
										OFFSET -0.104102 9.502952 0.006768
										CHANNELS 3 Zrotation Yrotation Xrotation
										JOINT LeftHandMiddle2
										{
											OFFSET -0.000000 4.568727 -0.000000
											CHANNELS 3 Zrotation Yrotation Xrotation
											JOINT LeftHandMiddle3
											{
												OFFSET 0.000000 3.654981 0.000000
												CHANNELS 3 Zrotation Yrotation Xrotation
												JOINT LeftHandMiddle4
												{
													OFFSET 0.000000 2.741236 -0.000000
													CHANNELS 3 Zrotation Yrotation Xrotation
													End Site
													{
														OFFSET 0.000000 0.000000 0.000000
													}
												}
											}
										}
									}
									JOINT LeftHandRing1
									{
										OFFSET -0.086752 8.921708 -2.267442
										CHANNELS 3 Zrotation Yrotation Xrotation
										JOINT LeftHandRing2
										{
											OFFSET 0.000000 4.061090 0.000000
											CHANNELS 3 Zrotation Yrotation Xrotation
											JOINT LeftHandRing3
											{
												OFFSET 0.000000 3.654981 0.000000
												CHANNELS 3 Zrotation Yrotation Xrotation
												JOINT LeftHandRing4
												{
													OFFSET 0.000000 2.741236 0.000000
													CHANNELS 3 Zrotation Yrotation Xrotation
													End Site
													{
														OFFSET 0.000000 0.000000 0.000000
													}
												}
											}
										}
									}
									JOINT LeftHandPinky1
									{
										OFFSET 0.173504 7.976997 -4.467199
										CHANNELS 3 Zrotation Yrotation Xrotation
										JOINT LeftHandPinky2
										{
											OFFSET -0.000000 3.350399 -0.000000
											CHANNELS 3 Zrotation Yrotation Xrotation
											JOINT LeftHandPinky3
											{
												OFFSET 0.000000 2.842763 0.000000
												CHANNELS 3 Zrotation Yrotation Xrotation
												JOINT LeftHandPinky4
												{
													OFFSET -0.000000 2.639709 -0.000000
													CHANNELS 3 Zrotation Yrotation Xrotation
													End Site
													{
														OFFSET 0.000000 0.000000 0.000000
													}
												}
											}
										}
									}
									JOINT LeftForeArmEnd
									{
										OFFSET 0.000000 0.000000 0.000000
										CHANNELS 3 Zrotation Yrotation Xrotation
										End Site
										{
											OFFSET 0.000000 0.000000 0.000000
										}
									}
								}
								JOINT LeftArmEnd
								{
									OFFSET 0.000000 0.000000 0.000000
									CHANNELS 3 Zrotation Yrotation Xrotation
									End Site
									{
										OFFSET 0.000000 0.000000 0.000000
									}
								}
							}
						}
					}
				}
			}
		}
	}
	JOINT RightUpLeg
	{
		OFFSET -11.289943 0.000000 0.000000
		CHANNELS 3 Zrotation Yrotation Xrotation
		JOINT RightLeg
		{
			OFFSET 0.000000 -38.200325 0.000000
			CHANNELS 3 Zrotation Yrotation Xrotation
			JOINT RightFoot
			{
				OFFSET -0.000000 -39.900856 -0.000000
				CHANNELS 3 Zrotation Yrotation Xrotation
				JOINT RightToeBase
				{
					OFFSET 0.000000 0.000000 15.261641
					CHANNELS 3 Zrotation Yrotation Xrotation
					JOINT RightToeBaseEnd
					{
						OFFSET 0.000000 0.000000 7.370709
						CHANNELS 3 Zrotation Yrotation Xrotation
						End Site
						{
							OFFSET 0.000000 0.000000 0.000000
						}
					}
				}
				JOINT RightLegEnd
				{
					OFFSET 0.000000 0.000000 0.000000
					CHANNELS 3 Zrotation Yrotation Xrotation
					End Site
					{
						OFFSET 0.000000 0.000000 0.000000
					}
				}
			}
			JOINT RightUpLegEnd
			{
				OFFSET 0.000000 0.000000 0.000000
				CHANNELS 3 Zrotation Yrotation Xrotation
				End Site
				{
					OFFSET 0.000000 0.000000 0.000000
				}
			}
		}
	}
	JOINT LeftUpLeg
	{
		OFFSET 11.315661 -0.000000 0.000000
		CHANNELS 3 Zrotation Yrotation Xrotation
		JOINT LeftLeg
		{
			OFFSET -0.000000 -38.200325 -0.000000
			CHANNELS 3 Zrotation Yrotation Xrotation
			JOINT LeftFoot
			{
				OFFSET 0.000000 -39.900856 -0.000000
				CHANNELS 3 Zrotation Yrotation Xrotation
				JOINT LeftToeBase
				{
					OFFSET -0.000000 -0.000000 15.261641
					CHANNELS 3 Zrotation Yrotation Xrotation
					JOINT LeftToeBaseEnd
					{
						OFFSET 0.000000 -0.000000 7.539996
						CHANNELS 3 Zrotation Yrotation Xrotation
						End Site
						{
							OFFSET 0.000000 0.000000 0.000000
						}
					}
				}
				JOINT LeftLegEnd
				{
					OFFSET 0.000000 0.000000 0.000000
					CHANNELS 3 Zrotation Yrotation Xrotation
					End Site
					{
						OFFSET 0.000000 0.000000 0.000000
					}
				}
			}
			JOINT LeftUpLegEnd
			{
				OFFSET 0.000000 0.000000 0.000000
				CHANNELS 3 Zrotation Yrotation Xrotation
				End Site
				{
					OFFSET 0.000000 0.000000 0.000000
				}
			}
		}
	}
}
MOTION
Frames: 4
Frame Time: 0.016667
0.053599 88.859886 3.107447 0.490481 0.055862 -6.497332 0.023754 -0.000539 5.886370 -1.012250 0.067046 0.861970 0.478071 -2.416792 3.829567 0.155030 -0.780500 1.929224 2.330515 0.848112 5.016849 0.371683 2.117863 -3.221864 -0.714533 -0.852149 -18.222401 0.000000 0.000000 0.000000 92.418694 -0.394880 9.707912 65.456573 -33.431271 5.091406 -0.130291 12.440493 22.353239 6.882370 13.743960 -6.458578 19.861429 30.097643 62.040974 -8.462701 -12.164348 -20.450144 -6.325801 -8.139122 -14.332924 0.000000 0.000000 0.000000 12.621688 -10.712396 0.231899 8.905269 0.376633 1.323778 8.902945 -0.111869 1.243825 0.000000 0.000000 0.000000 11.194713 -5.446730 -1.239449 7.889823 0.455857 0.481039 7.889222 -0.037052 0.412494 0.000000 0.000000 0.000000 10.912717 2.564455 -1.535874 7.825817 -0.947299 -0.611652 7.824722 0.070320 -0.477096 0.000000 0.000000 0.000000 9.631022 11.185607 -2.805182 7.161172 -1.900893 -1.652070 7.157181 0.085565 -1.400512 0.000000 0.000000 0.000000 0.000000 0.000000 0.000000 0.000000 0.000000 0.000000 -90.370071 0.051974 5.208683 -71.842018 19.306828 -7.574249 -0.664994 -8.642401 40.885647 -0.139946 -25.486511 -15.477552 -20.250540 -29.996990 61.691063 8.807010 12.918287 -21.553112 6.618044 8.635277 -15.110494 0.000000 0.000000 0.000000 -16.168392 -5.636370 -1.918335 -11.569428 0.324957 -1.715407 -11.569072 -0.164917 -1.615128 0.000000 0.000000 0.000000 -15.643335 -0.758781 -1.694552 -11.169063 0.440303 -0.678956 -11.168735 -0.058746 -0.582722 0.000000 0.000000 0.000000 -18.003109 7.607869 -1.025503 -12.703986 -0.874371 0.992852 -12.702737 0.099213 0.772902 0.000000 0.000000 0.000000 -18.852142 16.262062 -0.245862 -13.102126 -1.657223 2.980032 -13.096694 0.281077 2.526406 0.000000 0.000000 0.000000 0.000000 0.000000 0.000000 0.000000 0.000000 0.000000 -1.045058 -10.518975 11.869204 -0.078405 -0.635030 3.758801 -2.197730 -7.901679 18.681496 -0.890004 0.828132 -18.870453 0.000000 0.000000 0.000000 0.000000 0.000000 0.000000 0.000000 0.000000 0.000000 -1.784023 -6.543907 7.474547 0.053202 0.398207 7.545935 3.843466 -1.785134 17.966772 0.194973 -0.390531 -20.817129 0.000000 0.000000 0.000000 0.000000 0.000000 0.000000 0.000000 0.000000 0.000000 
0.112667 88.915466 2.909761 -0.285585 -0.302253 -7.322668 1.308439 -0.187196 6.635671 -0.956607 0.116204 2.681721 0.740894 -1.603286 1.554627 -0.891234 -0.170277 3.102048 1.315801 2.307416 3.108735 0.347821 2.971233 -3.825115 -1.055954 -0.585247 -18.460661 0.000000 0.000000 0.000000 92.967964 -0.452001 9.605322 64.987900 -32.181255 4.035578 -0.120771 13.113300 23.198582 6.784541 13.107908 -6.908740 19.888231 30.089100 62.062332 -8.447992 -12.105069 -20.475643 -6.305315 -8.111308 -14.304616 0.000000 0.000000 0.000000 12.039146 -10.752297 -0.290742 8.997873 0.333325 1.329941 8.788074 -0.107810 1.265554 0.000000 0.000000 0.000000 10.869043 -5.356750 -1.082830 7.658885 0.422252 0.518162 8.027814 -0.052944 0.443356 0.000000 0.000000 0.000000 10.318239 2.574507 -0.817729 7.461435 -0.889458 -0.851627 7.504724 0.067297 -0.625896 0.000000 0.000000 0.000000 9.606953 11.049320 -1.751656 7.153336 -1.650635 -2.424510 6.740396 0.277422 -2.048292 0.000000 0.000000 0.000000 0.000000 0.000000 0.000000 0.000000 0.000000 0.000000 -89.902054 0.126609 6.016120 -71.672768 19.589167 -6.533887 -1.223585 -9.096558 40.409035 1.918641 -23.180748 -16.017818 -20.259279 -29.960554 61.593357 8.905664 12.972096 -21.722021 6.665952 8.681899 -15.185784 0.000000 0.000000 0.000000 -17.268070 -5.480639 -0.129134 -11.004248 0.293791 -1.394765 -11.123215 -0.169076 -1.287757 0.000000 0.000000 0.000000 -16.601313 -0.498284 -0.911048 -10.887980 0.408515 -0.589870 -10.810399 -0.066568 -0.474015 0.000000 0.000000 0.000000 -18.736887 7.536427 -0.740127 -12.388158 -0.869328 0.848168 -12.363545 0.084032 0.659047 0.000000 0.000000 0.000000 -19.970455 15.942048 -1.137242 -12.947253 -1.550600 2.643900 -12.800968 0.343900 2.249453 0.000000 0.000000 0.000000 0.000000 0.000000 0.000000 0.000000 0.000000 0.000000 0.147060 -9.189142 11.021782 -0.048475 -0.639963 6.166031 -2.893042 -9.034420 17.701321 -0.795132 0.754230 -19.036381 0.000000 0.000000 0.000000 0.000000 0.000000 0.000000 0.000000 0.000000 0.000000 -1.531439 -6.364641 7.172193 0.058259 0.366437 8.532389 3.730590 -0.577532 16.971573 0.390096 -0.471685 -20.508377 0.000000 0.000000 0.000000 0.000000 0.000000 0.000000 0.000000 0.000000 0.000000 
0.116401 88.899185 2.897847 -0.317068 -0.366056 -7.394507 1.310467 -0.175604 6.672620 -0.890302 0.102076 2.653480 0.740592 -1.566804 1.654567 -0.867832 -0.140325 3.150697 1.282632 2.221790 3.038793 0.338120 2.896147 -3.828490 -1.071003 -0.619722 -18.434168 0.000000 0.000000 0.000000 92.863808 -0.453209 9.536821 64.978378 -32.411919 4.060313 -0.075642 13.182323 23.270491 6.574330 12.712145 -6.898456 19.874762 30.091240 62.064560 -8.447084 -12.092061 -20.458366 -6.305168 -8.099353 -14.293016 0.000000 0.000000 0.000000 12.041471 -10.754955 -0.312274 9.042894 0.338062 1.312599 8.846434 -0.101338 1.247947 0.000000 0.000000 0.000000 10.904753 -5.353705 -1.061684 7.716693 0.422808 0.510722 8.086406 -0.051353 0.437752 0.000000 0.000000 0.000000 10.371934 2.558086 -0.762518 7.552970 -0.890557 -0.842936 7.597562 0.064140 -0.616795 0.000000 0.000000 0.000000 9.608742 11.026885 -1.626758 7.175153 -1.656546 -2.411568 6.782345 0.270065 -2.028386 0.000000 0.000000 0.000000 0.000000 0.000000 0.000000 0.000000 0.000000 0.000000 -89.859871 0.132742 6.047578 -71.834541 19.715506 -6.548473 -1.218198 -9.154904 40.468693 2.058449 -22.837942 -15.978511 -20.249277 -29.966831 61.606853 8.885702 12.947651 -21.686096 6.651979 8.661902 -15.155800 0.000000 0.000000 0.000000 -17.181194 -5.520850 -0.201994 -11.085052 0.294823 -1.384390 -11.183076 -0.165900 -1.281549 0.000000 0.000000 0.000000 -16.514256 -0.523296 -0.960354 -10.973158 0.408465 -0.589401 -10.893865 -0.066982 -0.474315 0.000000 0.000000 0.000000 -18.713675 7.530795 -0.798014 -12.480487 -0.869121 0.850517 -12.440016 0.083842 0.660001 0.000000 0.000000 0.000000 -19.968760 15.941713 -1.201423 -12.990473 -1.553357 2.631866 -12.821398 0.341344 2.252519 0.000000 0.000000 0.000000 0.000000 0.000000 0.000000 0.000000 0.000000 0.000000 0.167663 -9.131564 11.129333 -0.048745 -0.642600 6.085738 -2.851063 -9.060219 17.738415 -0.798984 0.753348 -19.039003 0.000000 0.000000 0.000000 0.000000 0.000000 0.000000 0.000000 0.000000 0.000000 -1.499462 -6.319050 7.150568 0.057105 0.355360 8.643520 3.737668 -0.565849 16.960222 0.371839 -0.474089 -20.537041 0.000000 0.000000 0.000000 0.000000 0.000000 0.000000 0.000000 0.000000 0.000000 
0.120223 88.889267 2.903146 -0.336928 -0.427294 -7.489433 1.317783 -0.168071 6.678726 -0.870106 0.101424 2.639144 0.752055 -1.546418 1.733254 -0.854530 -0.106943 3.223079 1.245058 2.175532 3.018933 0.348641 2.853890 -3.803717 -1.070770 -0.634358 -18.433395 0.000000 0.000000 0.000000 92.777168 -0.456160 9.482477 65.052200 -32.323521 3.949290 -0.063963 13.250394 23.461348 6.564567 12.337938 -6.865159 19.885628 30.090483 62.051800 -8.455924 -12.124946 -20.500715 -6.314062 -8.115785 -14.323154 0.000000 0.000000 0.000000 12.137165 -10.788254 -0.300965 9.160454 0.344688 1.289047 8.971371 -0.094574 1.225292 0.000000 0.000000 0.000000 11.008571 -5.369997 -1.021117 7.832789 0.425435 0.500948 8.200566 -0.048764 0.429568 0.000000 0.000000 0.000000 10.455977 2.552279 -0.675084 7.664231 -0.893679 -0.833714 7.708612 0.061303 -0.608119 0.000000 0.000000 0.000000 9.624890 11.036238 -1.465625 7.220698 -1.663468 -2.402969 6.843458 0.265243 -2.020767 0.000000 0.000000 0.000000 0.000000 0.000000 0.000000 0.000000 0.000000 0.000000 -89.836136 0.142413 6.053809 -71.970940 19.715210 -6.556539 -1.182835 -9.211691 40.494919 2.051114 -22.539238 -15.788828 -20.258312 -29.968269 61.605183 8.882409 12.945486 -21.701160 6.651131 8.664951 -15.158638 0.000000 0.000000 0.000000 -17.195316 -5.547795 -0.175345 -11.134278 0.298020 -1.368085 -11.213019 -0.162126 -1.269563 0.000000 0.000000 0.000000 -16.515526 -0.533962 -0.930184 -11.027543 0.409562 -0.584112 -10.955023 -0.066502 -0.469806 0.000000 0.000000 0.000000 -18.780046 7.536665 -0.745340 -12.540788 -0.870625 0.851188 -12.501481 0.082778 0.658545 0.000000 0.000000 0.000000 -20.080811 15.945974 -1.167506 -13.040128 -1.555880 2.633597 -12.847363 0.342886 2.262493 0.000000 0.000000 0.000000 0.000000 0.000000 0.000000 0.000000 0.000000 0.000000 0.168561 -9.068348 11.247083 -0.048880 -0.641125 6.076443 -2.814909 -9.073210 17.763512 -0.800378 0.752991 -19.047064 0.000000 0.000000 0.000000 0.000000 0.000000 0.000000 0.000000 0.000000 0.000000 -1.486455 -6.290714 7.150882 0.056572 0.352212 8.775135 3.751021 -0.551630 16.932098 0.362584 -0.476967 -20.549828 0.000000 0.000000 0.000000 0.000000 0.000000 0.000000 0.000000 0.000000 0.000000 
